<svg xmlns="http://www.w3.org/2000/svg"
 xmlns:xlink="http://www.w3.org/1999/xlink"
 width="22px" height="22px"  viewBox="0 0 22 22">
<path fill-rule="evenodd"  fill="#ffffff"
 d="M9.599731,15.774414 C9.599731,15.774414 15.299744,11.499878 15.299744,11.499878 C15.299744,11.499878 9.599731,7.2249756 9.599731,7.2249756 C9.599731,7.2249756 9.599731,15.774414 9.599731,15.774414 ZM11.499939,1.9997559 C6.2511597,1.9997559 1.9998779,6.2512207 1.9998779,11.499878 C1.9998779,16.748535 6.2511597,20.999634 11.499939,20.999634 C16.74878,20.999634 20.999756,16.748535 20.999756,11.499878 C20.999756,6.2512207 16.74878,1.9997559 11.499939,1.9997559 ZM11.499939,19.099487 C7.3103027,19.099487 3.8997803,15.689331 3.8997803,11.499878 C3.8997803,7.3103027 7.3103027,3.8999023 11.499939,3.8999023 C15.689331,3.8999023 19.099854,7.3103027 19.099854,11.499878 C19.099854,15.689331 15.689331,19.099487 11.499939,19.099487 Z"/>
</svg>