<svg xmlns="http://www.w3.org/2000/svg"
 xmlns:xlink="http://www.w3.org/1999/xlink"
 width="24px" height="23px"  viewBox="0 0 24 23">
<path fill-rule="evenodd"  fill="#0f53fa"
 d="M20.717041,1.9996338 C20.717041,1.9996338 4.2822876,1.9996338 4.2822876,1.9996338 C3.022583,2.0013428 2.0012207,3.0131836 1.9997559,4.2617188 C1.9997559,4.2617188 1.9997559,13.761841 1.9997559,13.761841 C2.0012207,15.01062 3.022583,16.022217 4.2822876,16.02356 C4.2822876,16.02356 6.5651855,16.02356 6.5651855,16.02356 C6.5651855,16.02356 6.5651855,20.54773 6.5651855,20.54773 C6.5651855,20.720703 6.665039,20.878662 6.8220215,20.954224 C6.97937,21.029907 7.166321,21.009888 7.30365,20.903198 C7.30365,20.903198 13.570801,16.02356 13.570801,16.02356 C13.570801,16.02356 20.717041,16.02356 20.717041,16.02356 C21.977173,16.022217 22.998413,15.01062 23.0,13.761841 C23.0,13.761841 23.0,4.2617188 23.0,4.2617188 C22.998413,3.0131836 21.977173,2.0013428 20.717041,1.9996338 Z"/>
</svg>