<svg xmlns="http://www.w3.org/2000/svg"
 xmlns:xlink="http://www.w3.org/1999/xlink"
 width="29px" height="21px"  viewBox="0 0 29 21">
<path fill-rule="evenodd"  fill="#0f53fa"
 d="M23.400757,9.897949 C22.851318,5.4300537 19.006714,1.9996338 14.43457,1.9996338 C9.742798,1.9996338 5.8674316,5.553589 5.44104,10.162598 C3.3953857,10.857178 1.9997559,12.765381 1.9997559,14.937134 C1.9997559,17.728638 4.2817383,19.999512 7.086792,19.999512 C7.086792,19.999512 22.912964,19.999512 22.912964,19.999512 C25.717896,19.999512 27.999878,17.728638 27.999878,14.937134 C27.999878,12.310181 25.97815,10.143311 23.400757,9.897949 ZM19.926758,13.390381 C19.347412,15.6258545 17.321777,17.187378 14.999878,17.187378 C13.67395,17.187378 12.41626,16.662842 11.479614,15.770752 C11.479614,15.770752 9.913452,17.187378 9.913452,17.187378 C9.913452,17.187378 10.09436,13.429932 10.09436,13.429932 C10.09436,13.429932 13.869507,13.609497 13.869507,13.609497 C13.869507,13.609497 12.320068,15.010986 12.320068,15.010986 C13.04248,15.672363 13.994873,16.062378 14.999878,16.062378 C16.805908,16.062378 18.38147,14.8479 18.831543,13.109131 C18.909668,12.808472 19.221313,12.628784 19.52002,12.704834 C19.822144,12.782471 20.004272,13.088867 19.926758,13.390381 ZM19.905884,10.819702 C19.905884,10.819702 16.130249,10.6397705 16.130249,10.6397705 C16.130249,10.6397705 17.684814,9.234131 17.684814,9.234131 C16.957275,8.565308 15.999756,8.187622 14.999878,8.187622 C13.193481,8.187622 11.617554,9.401733 11.168213,11.140137 C11.102051,11.394287 10.872559,11.562012 10.620972,11.562012 C10.574219,11.562012 10.526855,11.5563965 10.479736,11.544556 C10.17749,11.467163 9.995483,11.160034 10.072876,10.859985 C10.651123,8.623779 12.677368,7.062256 14.999878,7.062256 C16.317993,7.062256 17.577148,7.57666 18.52063,8.478149 C18.52063,8.478149 20.086182,7.062256 20.086182,7.062256 C20.086182,7.062256 19.905884,10.819702 19.905884,10.819702 Z"/>
</svg>